<svg
	width="209"
	height="28"
	viewBox="0 0 209 28"
	fill="none"
	xmlns="http://www.w3.org/2000/svg"
>
<path
		d="M13.5064 5.50676C13.8645 5.71349 14.2411 5.82424 14.6287 5.83532H14.6878C15.0532 5.83532 15.4039 5.74672 15.7288 5.56583C16.0684 5.36648 16.349 5.08961 16.5705 4.72783C16.8511 4.21839 16.995 3.6794 16.9877 3.11828C16.9877 2.56084 16.84 2.02557 16.5631 1.51243C16.2862 0.999293 15.9134 0.607976 15.463 0.342179C14.876 -0.0122168 14.2632 -0.0897386 13.643 0.102226C13.0302 0.301574 12.5614 0.726111 12.2587 1.37215C11.9301 2.09201 11.8932 2.86726 12.1405 3.68311C12.3916 4.49896 12.8493 5.11176 13.5028 5.50308M15.1972 0.899618C15.4999 1.14327 15.7805 1.47551 16.0352 1.89267C16.2862 2.30613 16.4561 2.73436 16.5336 3.16259C16.6369 3.73848 16.5816 4.22208 16.3712 4.6097C16.2087 4.89764 15.9909 5.12284 15.7288 5.29265C15.1529 5.65443 14.5143 5.53998 13.7759 4.95302C13.4732 4.71675 13.1927 4.39189 12.9453 3.97843C12.698 3.56497 12.5282 3.13674 12.4396 2.70851C12.3436 2.20645 12.362 1.79299 12.4876 1.47182C12.5577 1.30569 12.6463 1.15065 12.7534 1.01406C12.8567 0.877468 12.9822 0.751952 13.1188 0.644895C13.2554 0.537838 13.3994 0.456621 13.5544 0.401247C13.6947 0.349564 13.8313 0.32741 13.9642 0.32741C14.0971 0.32741 14.23 0.353256 14.3555 0.401247C14.6213 0.504612 14.9056 0.67812 15.1972 0.910693"
		fill="#54204E"
	/>
<path
		d="M17.7297 27.2976C16.6665 27.1647 15.7399 26.7365 14.9425 26.0351C15.0053 25.9723 15.0791 25.9243 15.1418 25.8579C16.1054 24.8981 16.5705 23.8533 16.5373 22.72C16.5373 22.2216 16.4598 21.7602 16.3121 21.3357C16.2641 21.2028 16.194 21.0772 16.1312 20.948C16.9544 20.4054 17.9955 19.8959 19.2765 19.4197C19.5755 19.3126 20.1403 19.1207 20.9709 18.8327C21.8015 18.5485 22.5288 18.3011 23.1601 18.0907C23.7913 17.8803 24.5296 17.5776 25.375 17.1863C26.2204 16.7986 26.9181 16.4073 27.4645 16.016C28.0145 15.6247 28.4797 15.1374 28.8599 14.5541C29.2402 13.9672 29.4321 13.3581 29.4321 12.7194C29.4654 11.7596 29.1663 10.8478 28.5351 9.97653C27.9038 9.10899 27.1581 8.44081 26.2942 7.97936C25.0649 7.3407 23.64 7.01953 22.012 7.01953C19.8265 7.01953 17.3974 7.55113 14.7173 8.60324C12.0372 7.54744 9.6081 7.01953 7.42266 7.01953C5.79834 7.01953 4.36599 7.3407 3.14037 7.97936C2.27653 8.4445 1.53082 9.10899 0.899554 9.97653C0.268286 10.8478 -0.0307328 11.7596 0.00249187 12.7194C0.00249187 13.3581 0.19076 13.9709 0.574689 14.5541C0.954927 15.1411 1.42007 15.6284 1.97012 16.016C2.51648 16.4073 3.2142 16.795 4.05958 17.1863C4.90497 17.5776 5.64329 17.8766 6.27456 18.0907C6.90214 18.3011 7.63677 18.5522 8.4637 18.8327C9.29431 19.1207 9.85913 19.3126 10.1582 19.4197C11.4391 19.8885 12.4765 20.4017 13.2997 20.948C13.237 21.0772 13.1668 21.2028 13.1188 21.3357C12.9712 21.7602 12.8936 22.2216 12.8936 22.72C12.8604 23.857 13.3256 24.9018 14.2891 25.8579C14.3518 25.9243 14.4257 25.9723 14.4884 26.0351C13.691 26.7365 12.7644 27.1647 11.7012 27.2976C10.04 27.4748 8.07238 26.9617 5.80203 25.7545C3.52799 24.5474 1.72648 23.2885 0.401182 21.978V25.8616C5.11539 27.7074 8.93253 28.3091 11.8526 27.6705C12.9749 27.3973 13.9236 26.9137 14.7173 26.2344C15.511 26.9137 16.4561 27.3973 17.582 27.6705C20.5058 28.3091 24.3229 27.7037 29.0334 25.8616V21.978C27.7081 23.2922 25.9066 24.5511 23.6326 25.7545C21.3585 26.9617 19.3946 27.4748 17.7334 27.2976M10.7414 16.7913C10.0954 16.5255 9.63763 16.3372 9.37183 16.2338C9.10234 16.1268 8.64089 15.957 7.9764 15.7281C7.31191 15.4992 6.93167 15.3626 6.832 15.3294C4.60595 14.5135 3.11453 13.646 2.35037 12.7194C1.61942 11.7596 1.36839 10.892 1.60096 10.1094C1.82984 9.33049 2.35036 8.70661 3.14406 8.24885C3.93776 7.7874 4.82006 7.57328 5.78357 7.61019C6.51451 7.61019 7.41896 7.80585 8.49692 8.19716C9.57487 8.58847 10.6787 9.09423 11.8083 9.71442C12.9158 10.3235 13.8756 10.977 14.6952 11.671V11.7116C14.6952 11.7116 14.7099 11.6968 14.721 11.6894C14.7284 11.6968 14.7358 11.7042 14.7468 11.7116V11.671C15.5664 10.977 16.5299 10.3235 17.6337 9.71442C18.7633 9.09423 19.8671 8.58847 20.9451 8.19716C22.023 7.80954 22.9312 7.61019 23.6584 7.61019C24.6219 7.57697 25.5005 7.7874 26.2979 8.24885C27.0953 8.7103 27.6122 9.33418 27.841 10.1094C28.0736 10.8884 27.8263 11.7596 27.0916 12.7194C26.3312 13.6386 24.8361 14.5135 22.61 15.3294C22.514 15.3626 22.1301 15.4992 21.4656 15.7281C20.8011 15.9606 20.3397 16.1268 20.0702 16.2338C19.8044 16.3409 19.3466 16.5255 18.7006 16.7913C18.0545 17.0571 17.5636 17.2786 17.2313 17.4558C16.8991 17.633 16.4671 17.8803 15.9355 18.1978C15.4039 18.5189 14.9979 18.829 14.7136 19.1281C14.4294 18.8254 14.027 18.5153 13.4917 18.1941C12.9601 17.8766 12.5282 17.6293 12.1959 17.4521C11.8637 17.2749 11.3764 17.0534 10.7267 16.7876M14.0528 23.3107C14.1857 22.912 14.4146 22.5317 14.7247 22.1589C15.0385 22.5281 15.2637 22.912 15.3966 23.3107C15.714 24.2373 15.4889 25.079 14.7247 25.8394C13.9605 25.079 13.7316 24.2373 14.0528 23.3107Z"
		fill="#54204E"
	/>
<path
		d="M55.5023 13.3629C56.5175 13.7911 57.3666 14.1861 58.0458 14.5442C58.7251 14.906 59.4007 15.3675 60.0689 15.9249C60.737 16.486 61.2428 17.1284 61.5898 17.8482C61.9368 18.5718 62.1103 19.384 62.1103 20.2921C62.1103 21.8167 61.671 23.1568 60.7887 24.3197C59.9064 25.4825 58.8137 26.3574 57.5032 26.9444C56.1927 27.5314 54.8046 27.8267 53.3353 27.8267C52.2131 27.8267 51.1536 27.7123 50.1495 27.4871C49.149 27.2619 48.311 26.9739 47.6465 26.6269C46.9784 26.2799 46.3988 25.9403 45.9041 25.6043C45.4094 25.2721 45.055 24.9842 44.8409 24.7442L44.4791 24.3824L45.402 22.8984C45.5091 23.0313 45.6346 23.1974 45.7823 23.4004C45.9299 23.5998 46.2622 23.9468 46.7827 24.4415C47.3032 24.9362 47.8496 25.3755 48.4255 25.7631C49.0014 26.1507 49.7286 26.5051 50.6109 26.8263C51.4932 27.1474 52.3866 27.3062 53.2947 27.3062C54.8969 27.3062 56.3809 26.8263 57.7431 25.8628C59.1054 24.9029 59.7846 23.6736 59.7846 22.1748C59.7846 20.8385 59.2752 19.7125 58.2637 18.7896C57.2485 17.8667 55.901 17.0324 54.2176 16.2867L53.3612 15.9101L52.7779 15.6443C52.7521 15.6443 52.5786 15.5779 52.2574 15.445L51.8956 15.3232C50.9321 14.9208 50.1384 14.5738 49.5108 14.2821C48.8832 13.9905 48.2298 13.6213 47.5469 13.1783C46.8676 12.739 46.3397 12.2923 45.9632 11.8346C45.5866 11.3805 45.2765 10.8268 45.0218 10.1734C44.7671 9.51993 44.6416 8.79268 44.6416 7.9916C44.6416 5.85415 45.45 4.13016 47.067 2.82332C48.6839 1.51649 50.718 0.859375 53.1766 0.859375C54.6459 0.859375 55.9859 1.01812 57.2042 1.33929C58.4187 1.66046 59.2678 1.98163 59.7477 2.3028L60.5082 2.78272L59.2678 4.42549C59.2124 4.34427 59.1349 4.23353 59.0278 4.08586C58.9208 3.9382 58.6734 3.68348 58.2858 3.32539C57.8982 2.96361 57.4773 2.64982 57.0233 2.38402C56.5692 2.11822 55.9601 1.87088 55.1996 1.642C54.4391 1.41681 53.6454 1.30237 52.8148 1.30237C50.9727 1.30237 49.5145 1.74167 48.4476 2.62397C47.3771 3.50627 46.8455 4.76143 46.8455 6.38943C46.8455 7.02809 46.9931 7.64458 47.2885 8.23155C47.5801 8.81852 47.9087 9.30212 48.2704 9.67498C48.6322 10.0478 49.1712 10.4428 49.8947 10.8563C50.6146 11.2698 51.1979 11.5799 51.6372 11.7792C52.0765 11.9786 52.7262 12.2554 53.579 12.6024L53.9038 12.7206C53.974 12.7575 54.0589 12.7981 54.129 12.8276L54.8046 13.0787L55.4986 13.3592L55.5023 13.3629Z"
		fill="#54204E"
	/>
<path
		d="M44.6858 24.3556L44.9553 24.6251C45.1657 24.865 45.5165 25.1456 45.9927 25.4668C46.48 25.799 47.0632 26.1386 47.7203 26.4783C48.3738 26.8179 49.2007 27.1022 50.1864 27.3273C51.172 27.5488 52.2315 27.6633 53.3353 27.6633C54.7751 27.6633 56.152 27.3716 57.4367 26.7958C58.714 26.2236 59.7994 25.356 60.6595 24.219C61.516 23.0894 61.9516 21.7678 61.9516 20.2874C61.9516 19.4088 61.7818 18.6114 61.4458 17.9137C61.1099 17.216 60.6115 16.5884 59.9655 16.042C59.3084 15.492 58.6365 15.0305 57.972 14.6798C57.2964 14.3217 56.4437 13.9267 55.4395 13.5059L54.7455 13.2253L54.0736 12.9743C54.0035 12.9448 53.9149 12.9042 53.8374 12.8636L53.5236 12.7491C52.6671 12.4021 52.01 12.1252 51.567 11.9222C51.124 11.7192 50.5334 11.4091 49.8098 10.9919C49.0789 10.5711 48.5214 10.165 48.1523 9.78105C47.7794 9.39712 47.4435 8.89506 47.1445 8.30071C46.8417 7.69528 46.6867 7.05294 46.6867 6.38845C46.6867 4.71614 47.2441 3.40931 48.3479 2.50117C49.4407 1.60041 50.9431 1.14265 52.8148 1.14265C53.6528 1.14265 54.4723 1.26078 55.2439 1.48967C56.0117 1.71855 56.6393 1.97326 57.1008 2.24644C57.5622 2.51962 57.9978 2.84079 58.3928 3.20995C58.7915 3.58281 59.0389 3.83754 59.1533 3.99259C59.1976 4.05165 59.2345 4.10703 59.2714 4.15502L60.2756 2.82603L59.6628 2.4384C59.1976 2.12831 58.3559 1.81083 57.1635 1.49704C55.9674 1.18326 54.6274 1.02082 53.1766 1.02082C50.7696 1.02082 48.7466 1.67055 47.1666 2.94785C45.5977 4.21777 44.8003 5.91592 44.8003 7.99431C44.8003 8.77324 44.9258 9.48572 45.1694 10.1207C45.4168 10.7593 45.7232 11.302 46.085 11.7413C46.4467 12.1806 46.9673 12.6199 47.6318 13.0518C48.3036 13.4874 48.9571 13.8529 49.5772 14.1446C50.1937 14.4325 50.9948 14.7832 51.9546 15.1856L52.3054 15.3C52.6597 15.4477 52.7631 15.4846 52.7927 15.492H52.8111L53.4276 15.7689L54.2841 16.1454C55.9748 16.8948 57.3481 17.7476 58.3744 18.6779C59.4191 19.6266 59.947 20.8042 59.947 22.1812C59.947 23.7243 59.2382 25.009 57.8354 25.9984C56.4511 26.9729 54.9264 27.4676 53.2947 27.4676C52.3718 27.4676 51.4526 27.3015 50.5555 26.9766C49.6622 26.6518 48.9164 26.29 48.3369 25.895C47.761 25.5074 47.1998 25.057 46.6719 24.5586C46.1403 24.0529 45.8044 23.7059 45.653 23.4954C45.5718 23.3847 45.4943 23.2813 45.4168 23.178L44.6821 24.3593L44.6858 24.3556ZM53.339 27.9845C52.2131 27.9845 51.1277 27.87 50.1199 27.6411C49.1084 27.4123 48.2519 27.1169 47.5764 26.7662C46.9082 26.4192 46.3175 26.0722 45.8192 25.7363C45.3171 25.4003 44.9516 25.1013 44.7264 24.8503L44.2834 24.4073L45.3909 22.6242L45.5312 22.8014C45.6604 22.9638 45.7859 23.13 45.9152 23.3072C46.0554 23.4991 46.3877 23.8425 46.8971 24.3261C47.4103 24.8133 47.9566 25.2527 48.5177 25.6329C49.0752 26.0094 49.7987 26.3601 50.6663 26.6776C51.5264 26.9914 52.4124 27.1465 53.2947 27.1465C54.8563 27.1465 56.3218 26.6702 57.6508 25.7326C58.9614 24.806 59.6258 23.6099 59.6258 22.1775C59.6258 20.8965 59.1312 19.7964 58.1566 18.9104C57.1562 18.006 55.8124 17.1717 54.1512 16.4334L52.7262 15.7984C52.6708 15.7836 52.549 15.7393 52.1909 15.5917L51.8402 15.4772C50.8656 15.0711 50.0608 14.7204 49.437 14.4288C48.8057 14.1335 48.1375 13.7606 47.4546 13.3176C46.7642 12.8709 46.2179 12.4095 45.8339 11.9443C45.45 11.4792 45.1251 10.907 44.8667 10.2388C44.6083 9.57063 44.4754 8.81384 44.4754 7.99799C44.4754 5.81993 45.3097 4.04057 46.9599 2.7042C48.599 1.37891 50.6884 0.707031 53.1692 0.707031C54.6458 0.707031 56.0118 0.869465 57.2374 1.19433C58.4814 1.52288 59.3305 1.84406 59.8289 2.18L60.7333 2.75219L59.253 4.70876L59.1275 4.52418C59.0758 4.44666 58.9946 4.33222 58.8912 4.18824C58.7915 4.05165 58.5479 3.80431 58.1714 3.44992C57.7948 3.09921 57.3776 2.78912 56.9383 2.52701C56.499 2.2686 55.8973 2.02495 55.1516 1.79976C54.4096 1.57826 53.6233 1.46752 52.8148 1.46752C51.017 1.46752 49.5809 1.89943 48.551 2.75219C47.5247 3.59758 47.0042 4.82319 47.0042 6.39583C47.0042 7.01233 47.1482 7.60669 47.4287 8.16781C47.713 8.73632 48.0341 9.20885 48.3812 9.57063C48.7282 9.93241 49.2635 10.32 49.9686 10.7261C50.681 11.1359 51.2643 11.4423 51.6962 11.6416C52.1355 11.841 52.7853 12.1179 53.6343 12.4612L53.9777 12.5867C54.0293 12.6162 54.1032 12.6531 54.1881 12.6864L54.8563 12.9374L55.5577 13.2217C56.5692 13.6462 57.4293 14.0486 58.116 14.4104C58.8026 14.7758 59.4929 15.2447 60.1685 15.8132C60.8515 16.3854 61.3757 17.0499 61.7338 17.7882C62.0882 18.5302 62.269 19.3756 62.269 20.3022C62.269 21.8527 61.815 23.2407 60.9142 24.4257C60.0209 25.6034 58.8949 26.5041 57.5659 27.0985C56.2406 27.6928 54.8157 27.9918 53.3353 27.9918"
		fill="#54204E"
	/>
<path
		d="M122.059 12.9877C123.1 13.427 123.971 13.8294 124.669 14.1986C125.366 14.5677 126.06 15.0402 126.743 15.6161C127.426 16.192 127.951 16.8491 128.305 17.5875C128.659 18.3295 128.84 19.1638 128.84 20.0941C128.84 21.6556 128.39 23.0326 127.482 24.225C126.577 25.4174 125.455 26.3145 124.111 26.9162C122.768 27.5179 121.343 27.8206 119.836 27.8206C118.685 27.8206 117.596 27.7025 116.569 27.47C115.543 27.2374 114.683 26.942 114 26.5876C113.313 26.2333 112.719 25.8825 112.213 25.5392C111.704 25.1959 111.342 24.9006 111.124 24.6569L110.755 24.2878L111.7 22.7668C111.807 22.9034 111.94 23.0732 112.091 23.28C112.243 23.4867 112.582 23.8411 113.118 24.3505C113.653 24.8563 114.214 25.3104 114.805 25.7054C115.395 26.104 116.141 26.4658 117.046 26.7944C117.95 27.1229 118.869 27.2854 119.799 27.2854C121.442 27.2854 122.967 26.7944 124.362 25.805C125.761 24.8194 126.459 23.5568 126.459 22.0211C126.459 20.6515 125.939 19.4923 124.898 18.5473C123.857 17.6022 122.472 16.7458 120.745 15.9779L119.866 15.5903L119.264 15.3171C119.238 15.3171 119.057 15.2507 118.729 15.1104L118.36 14.9886C117.374 14.5788 116.558 14.2207 115.912 13.918C115.27 13.6153 114.598 13.2387 113.897 12.7883C113.199 12.338 112.656 11.8765 112.272 11.4114C111.888 10.9462 111.567 10.3777 111.305 9.70585C111.047 9.03397 110.914 8.28826 110.914 7.46503C110.914 5.27221 111.744 3.50392 113.402 2.16017C115.059 0.816415 117.149 0.144531 119.67 0.144531C121.176 0.144531 122.553 0.310664 123.801 0.639219C125.049 0.967774 125.92 1.29632 126.411 1.62488L127.19 2.11587L125.917 3.80293C125.861 3.72172 125.78 3.60359 125.669 3.45224C125.558 3.30088 125.307 3.04246 124.909 2.6733C124.51 2.30413 124.078 1.97927 123.613 1.70609C123.148 1.43291 122.524 1.17819 121.741 0.945619C120.962 0.713047 120.147 0.59491 119.294 0.59491C117.404 0.59491 115.909 1.0453 114.812 1.95344C113.716 2.85789 113.169 4.14626 113.169 5.81857C113.169 6.47568 113.321 7.10694 113.623 7.70868C113.926 8.31411 114.262 8.80509 114.631 9.18901C115 9.57294 115.558 9.97533 116.296 10.3999C117.034 10.8244 117.633 11.1419 118.083 11.3449C118.533 11.5517 119.198 11.8322 120.076 12.1866L120.412 12.3084C120.482 12.349 120.571 12.3897 120.645 12.4192L121.339 12.6776L122.051 12.9656L122.059 12.9877Z"
		fill="#54204E"
	/>
<path
		d="M110.954 24.2674L111.235 24.548C111.453 24.7916 111.811 25.0796 112.302 25.4118C112.804 25.7515 113.398 26.1022 114.074 26.4492C114.742 26.7962 115.595 27.0915 116.606 27.3204C117.618 27.5493 118.707 27.6674 119.84 27.6674C121.317 27.6674 122.734 27.3684 124.052 26.7777C125.363 26.1871 126.478 25.2974 127.36 24.1345C128.239 22.9754 128.685 21.6168 128.685 20.0996C128.685 19.1988 128.512 18.3756 128.165 17.6594C127.821 16.9433 127.308 16.2972 126.644 15.7398C125.968 15.175 125.282 14.7024 124.595 14.3407C123.897 13.9715 123.026 13.5654 121.996 13.1335L121.283 12.8455L120.593 12.5871C120.523 12.5576 120.427 12.517 120.35 12.4727L120.028 12.3546C119.146 11.9965 118.474 11.7122 118.024 11.5055C117.57 11.2987 116.964 10.9776 116.222 10.553C115.473 10.1211 114.901 9.70767 114.52 9.31267C114.14 8.91766 113.793 8.40821 113.487 7.79171C113.177 7.17151 113.018 6.51071 113.018 5.83145C113.018 4.11854 113.59 2.77479 114.72 1.8445C115.838 0.921598 117.381 0.452765 119.301 0.452765C120.161 0.452765 120.999 0.570894 121.793 0.807158C122.583 1.04342 123.222 1.30553 123.698 1.5824C124.17 1.86297 124.617 2.19521 125.019 2.56806C125.429 2.9483 125.684 3.2104 125.798 3.37283C125.843 3.43559 125.887 3.49465 125.924 3.54634L126.961 2.17305L126.326 1.77436C125.846 1.45319 124.986 1.12833 123.761 0.807158C122.531 0.482295 121.154 0.319861 119.67 0.319861C117.201 0.319861 115.122 0.984359 113.502 2.29858C111.892 3.60541 111.072 5.34786 111.072 7.47793C111.072 8.27532 111.202 9.00994 111.453 9.65967C111.707 10.3131 112.021 10.8742 112.394 11.3209C112.767 11.7713 113.299 12.2254 113.981 12.6647C114.672 13.1113 115.344 13.4879 115.975 13.7832C116.606 14.0785 117.429 14.4403 118.415 14.8501L118.773 14.9682C119.139 15.1196 119.246 15.1565 119.272 15.1639H119.29L119.921 15.4481L120.8 15.8321C122.535 16.6036 123.945 17.4748 124.994 18.4273C126.064 19.4019 126.607 20.609 126.607 22.0192C126.607 23.6029 125.88 24.9172 124.444 25.9324C123.026 26.9328 121.457 27.4422 119.788 27.4422C118.843 27.4422 117.898 27.2724 116.979 26.9402C116.064 26.6079 115.299 26.2351 114.705 25.8327C114.111 25.434 113.538 24.9725 112.999 24.4594C112.453 23.9426 112.11 23.5845 111.955 23.3704C111.87 23.2559 111.789 23.1489 111.707 23.0418L110.951 24.2637L110.954 24.2674ZM119.84 27.9849C118.685 27.9849 117.573 27.8668 116.536 27.6305C115.499 27.3942 114.62 27.0915 113.93 26.7334C113.247 26.379 112.638 26.021 112.125 25.6776C111.611 25.3306 111.235 25.0242 111.006 24.7658L110.552 24.3154L111.685 22.4955L111.826 22.6726C111.958 22.8425 112.088 23.0123 112.221 23.1895C112.365 23.3851 112.704 23.7395 113.228 24.2379C113.756 24.7363 114.314 25.1867 114.893 25.578C115.469 25.9656 116.211 26.3274 117.101 26.6485C117.983 26.9697 118.891 27.1321 119.799 27.1321C121.402 27.1321 122.908 26.6448 124.27 25.6813C125.617 24.7326 126.3 23.5033 126.3 22.0303C126.3 20.7124 125.791 19.5865 124.791 18.6746C123.764 17.7443 122.384 16.8879 120.682 16.1348L119.22 15.4851C119.165 15.4703 119.039 15.426 118.67 15.2746L118.312 15.1565C117.311 14.7394 116.484 14.3776 115.849 14.0822C115.203 13.7795 114.517 13.3956 113.815 12.9415C113.107 12.4838 112.549 12.0075 112.154 11.5313C111.763 11.0551 111.427 10.4681 111.161 9.7815C110.895 9.09486 110.759 8.32331 110.759 7.48531C110.759 5.25187 111.615 3.42821 113.306 2.05861C114.986 0.700095 117.13 0.00976562 119.674 0.00976562C121.188 0.00976562 122.59 0.175891 123.845 0.508137C125.123 0.844075 125.994 1.17631 126.503 1.51594L127.426 2.09923L125.913 4.10008L125.787 3.9155C125.732 3.83428 125.651 3.71984 125.544 3.56849C125.44 3.4282 125.193 3.17349 124.805 2.81171C124.418 2.44993 123.993 2.13245 123.539 1.86665C123.085 1.60086 122.469 1.34983 121.704 1.12095C120.94 0.892068 120.135 0.777619 119.305 0.777619C117.459 0.777619 115.986 1.22062 114.927 2.09923C113.874 2.96676 113.339 4.2256 113.339 5.84253C113.339 6.4738 113.487 7.08662 113.775 7.66251C114.066 8.24579 114.395 8.73307 114.753 9.10592C115.111 9.47878 115.657 9.87748 116.381 10.2909C117.112 10.7118 117.71 11.0293 118.157 11.2286C118.603 11.4316 119.275 11.7159 120.146 12.0703L120.497 12.1995C120.549 12.229 120.626 12.266 120.715 12.3029L121.402 12.5613L122.121 12.8529C123.159 13.2885 124.041 13.6983 124.746 14.0712C125.451 14.444 126.156 14.9276 126.85 15.5072C127.552 16.0942 128.091 16.7771 128.453 17.5339C128.818 18.2944 129.003 19.1582 129.003 20.1107C129.003 21.7018 128.534 23.123 127.615 24.3376C126.699 25.5447 125.544 26.4676 124.181 27.0804C122.823 27.6896 121.361 27.9997 119.84 27.9997"
		fill="#54204E"
	/>
<path
		d="M74.9314 27.1413C75.9724 27.1413 76.8953 26.9272 77.6964 26.499C78.4975 26.0708 79.1251 25.5133 79.5791 24.8156C80.0332 24.1216 80.3655 23.3722 80.5796 22.5711C80.7937 21.77 80.9007 20.9431 80.9007 20.0866C80.9007 18.9127 80.7014 17.676 80.299 16.3803C79.8966 15.0845 79.3576 13.8699 78.6747 12.7329C77.9954 11.5996 77.1168 10.6582 76.05 9.90884C74.9831 9.15944 73.8461 8.78658 72.6463 8.78658L72.3657 8.82718C70.6011 8.88256 69.2057 9.55444 68.1794 10.8502C67.1494 12.146 66.6363 13.8736 66.6363 16.0406C66.6363 17.2182 66.8209 18.4365 67.1974 19.7064C67.5703 20.9763 68.0908 22.1687 68.759 23.291C69.4272 24.4132 70.3021 25.3324 71.3837 26.056C72.4654 26.7759 73.6467 27.1376 74.9314 27.1376M73.7722 8.27344C75.0274 8.27344 76.2308 8.4691 77.3789 8.85303C78.527 9.24065 79.5755 9.80916 80.5242 10.5549C81.4729 11.3043 82.226 12.3047 82.7872 13.5598C83.3483 14.815 83.6289 16.2437 83.6289 17.8458C83.6289 19.795 83.1342 21.5448 82.1448 23.0953C81.1555 24.6458 79.9151 25.8124 78.42 26.6024C76.9249 27.3887 75.3744 27.7837 73.7722 27.7837C72.5429 27.7837 71.3542 27.588 70.2061 27.2041C69.058 26.8165 68.0022 26.2443 67.0424 25.4801C66.0826 24.7196 65.311 23.7118 64.7388 22.4567C64.1629 21.2015 63.8787 19.7876 63.8787 18.2113C63.8787 16.2363 64.3733 14.4717 65.3627 12.9212C66.352 11.3707 67.5851 10.2115 69.0691 9.43631C70.5531 8.66107 72.1184 8.27344 73.7759 8.27344"
		fill="#54204E"
	/>
<path
		d="M72.6611 8.95302L72.3732 8.99362C70.6676 9.0453 69.298 9.70611 68.305 10.9576C67.3046 12.2201 66.7951 13.9293 66.7951 16.0483C66.7951 17.2038 66.9797 18.422 67.3489 19.6698C67.718 20.9176 68.2385 22.1137 68.8957 23.2175C69.5491 24.3139 70.4129 25.2257 71.4724 25.9308C72.5245 26.6322 73.6874 26.9866 74.9315 26.9866C75.943 26.9866 76.8474 26.7762 77.6227 26.3627C78.3942 25.9493 79.0107 25.4029 79.4463 24.7347C79.8893 24.0591 80.2179 23.3208 80.4283 22.5382C80.6387 21.7519 80.7421 20.9323 80.7421 20.0943C80.7421 18.9426 80.5427 17.7095 80.1477 16.4359C79.7527 15.1586 79.2138 13.9441 78.5419 12.8255C77.8737 11.7144 77.0062 10.7804 75.9614 10.0494C74.9278 9.32587 73.8166 8.96039 72.6574 8.9567M74.9315 27.3004C73.6246 27.3004 72.4027 26.9275 71.2989 26.1929C70.2025 25.462 69.3054 24.5132 68.6262 23.3762C67.9543 22.2466 67.4227 21.0283 67.0462 19.7547C66.6696 18.4811 66.4776 17.2296 66.4776 16.0446C66.4776 13.8555 67.0092 12.0761 68.054 10.7582C69.1061 9.43292 70.5495 8.73152 72.351 8.67615L72.6464 8.63553C73.8757 8.63553 75.0533 9.02315 76.1423 9.78732C77.224 10.5441 78.121 11.5113 78.8114 12.6594C79.498 13.8001 80.0481 15.0405 80.4504 16.34C80.8528 17.6468 81.0596 18.9093 81.0596 20.0943C81.0596 20.9582 80.9488 21.8073 80.7347 22.6194C80.5169 23.4353 80.1736 24.2068 79.7121 24.9082C79.2433 25.6244 78.5936 26.2077 77.7703 26.6433C76.9508 27.0826 75.9947 27.3041 74.9315 27.3041M73.7723 8.4325C72.148 8.4325 70.5901 8.81642 69.1393 9.57689C67.6885 10.3374 66.4629 11.4892 65.492 13.0064C64.5248 14.5237 64.0338 16.2735 64.0338 18.2079C64.0338 19.7547 64.318 21.1612 64.8792 22.3868C65.4403 23.6125 66.2008 24.6129 67.1384 25.3549C68.0798 26.1006 69.1319 26.6728 70.2542 27.0531C71.3838 27.4333 72.5651 27.6253 73.7686 27.6253C75.3375 27.6253 76.877 27.2339 78.3425 26.4624C79.8044 25.6908 81.0411 24.5317 82.0083 23.0107C82.9755 21.4972 83.4665 19.7584 83.4665 17.8461C83.4665 16.2735 83.1896 14.8522 82.6396 13.6229C82.0932 12.3973 81.3475 11.4079 80.4246 10.677C79.4943 9.94237 78.4533 9.37755 77.3273 9.001C76.1977 8.62076 75.0016 8.4288 73.7723 8.4288M73.7723 27.9427C72.5319 27.9427 71.3174 27.7434 70.1545 27.3521C68.9953 26.9608 67.9137 26.3738 66.9428 25.6022C65.9645 24.8307 65.1745 23.7934 64.5912 22.5197C64.0116 21.2498 63.7163 19.799 63.7163 18.2079C63.7163 16.2107 64.2221 14.4018 65.2225 12.8329C66.2192 11.2677 67.4891 10.0753 68.9879 9.29264C70.4867 8.51002 72.0963 8.11133 73.7686 8.11133C75.0348 8.11133 76.2641 8.31067 77.4233 8.6983C78.5825 9.08961 79.6567 9.67288 80.6166 10.426C81.5801 11.1864 82.359 12.2164 82.9275 13.49C83.496 14.7599 83.784 16.2255 83.784 17.8424C83.784 19.8138 83.2782 21.6079 82.2778 23.1769C81.2811 24.7421 80.0075 25.9419 78.4939 26.7393C76.9803 27.5367 75.3929 27.939 73.7723 27.939"
		fill="#54204E"
	/>
<path
		d="M101.818 8.27344L101.858 27.5031H99.1744V25.0187C96.6899 26.6467 94.486 27.4625 92.5627 27.4625C90.7464 27.4625 89.3436 26.9235 88.3543 25.8419C87.3649 24.7602 86.8702 23.2171 86.8702 21.2126V8.79396H85.3456V8.27344H89.5946L89.6352 20.4927C89.6352 24.4464 91.2374 26.4215 94.4418 26.4215C95.804 26.4215 97.3508 25.8087 99.0895 24.5794V8.79396H97.5686V8.27344H101.814H101.818Z"
		fill="#54204E"
	/>
<path
		d="M99.3296 27.3447H101.696L101.655 8.4325H97.7274V8.63553H99.2484V24.6609L99.1819 24.7089C97.4247 25.9529 95.8299 26.5805 94.4419 26.5805C91.1452 26.5805 89.4729 24.5317 89.4729 20.493L89.4323 8.4325H85.5044V8.63553H87.0291V21.2129C87.0291 23.1658 87.5127 24.6867 88.4688 25.7351C89.4212 26.7762 90.7945 27.3041 92.5591 27.3041C94.4419 27.3041 96.6347 26.4919 99.0822 24.8861L99.3296 24.7236V27.3447ZM102.017 27.6622H99.0158V25.3106C96.6162 26.8426 94.4455 27.6216 92.5665 27.6216C90.6875 27.6216 89.2551 27.0567 88.2436 25.9456C87.2321 24.8381 86.719 23.247 86.719 21.2092V8.94932H85.1943V8.11133H89.7609L89.8015 20.4893C89.8015 24.3729 91.3224 26.2593 94.4492 26.2593C95.7524 26.2593 97.2623 25.665 98.9383 24.4911V8.94932H97.4173V8.11133H101.98L102.021 27.6622H102.017Z"
		fill="#54204E"
	/>
<path
		d="M104.058 0.943359H108.347V27.5046H105.582V1.50448L104.058 1.46388V0.943359Z"
		fill="#54204E"
	/>
<path
		d="M105.742 27.3462H108.189V1.10242H104.221V1.30915L105.742 1.34976V27.3462ZM108.507 27.6637H105.424V1.65616L103.903 1.61556V0.78125H108.507V27.6637Z"
		fill="#54204E"
	/>
<path
		d="M139.276 8.67235C137.781 8.67235 136.493 9.20026 135.411 10.2561C134.33 11.3119 133.613 12.7221 133.266 14.483H144.002C144.002 12.9066 143.599 11.5444 142.798 10.3963C141.997 9.24824 140.82 8.67235 139.273 8.67235M148.649 22.2169L148.889 22.5381C148.782 22.671 148.642 22.8519 148.469 23.0808C148.295 23.306 147.907 23.701 147.306 24.2621C146.704 24.8232 146.076 25.3253 145.423 25.7646C144.77 26.2076 143.92 26.6063 142.879 26.968C141.838 27.3298 140.783 27.5107 139.716 27.5107C138.649 27.5107 137.538 27.2966 136.471 26.8684C135.4 26.4401 134.429 25.8421 133.547 25.0669C132.665 24.2916 131.949 23.2986 131.402 22.0803C130.856 20.8658 130.583 19.5368 130.583 18.0934C130.583 15.129 131.35 12.7516 132.886 10.9612C134.422 9.17071 136.578 8.27734 139.358 8.27734C141.388 8.27734 143.116 8.96398 144.544 10.341C145.973 11.7179 146.715 13.2463 146.767 14.9296H133.266C133.078 15.572 133.019 16.2845 133.086 17.0745C133.152 17.8645 133.266 18.6693 133.425 19.4999C133.584 20.3268 133.887 21.1279 134.326 21.9031C134.765 22.6784 135.278 23.3724 135.869 23.9852C136.456 24.598 137.209 25.0853 138.132 25.4471C139.055 25.8089 140.074 25.9898 141.196 25.9898C142.023 25.9898 142.839 25.8643 143.64 25.6095C144.441 25.3548 145.128 25.041 145.704 24.6682C146.276 24.2953 146.8 23.9188 147.265 23.5459C147.734 23.1731 148.088 22.8519 148.328 22.5861L148.649 22.2243V22.2169Z"
		fill="#54204E"
	/>
<path
		d="M133.462 14.3243H143.843C143.817 12.8551 143.422 11.5667 142.669 10.4887C141.901 9.39231 140.761 8.83488 139.273 8.83488C137.785 8.83488 136.563 9.35171 135.518 10.3706C134.503 11.36 133.809 12.6889 133.458 14.3243M144.164 14.6418H133.075L133.111 14.4535C133.462 12.6668 134.197 11.2197 135.301 10.1417C136.408 9.06008 137.748 8.51371 139.276 8.51371C140.805 8.51371 142.104 9.11544 142.931 10.3041C143.747 11.4744 144.161 12.8809 144.161 14.4831V14.6418H144.164ZM139.358 8.4325C136.641 8.4325 134.503 9.31849 133.008 11.0609C131.506 12.8108 130.741 15.1771 130.741 18.0898C130.741 19.5037 131.015 20.8216 131.55 22.0103C132.085 23.199 132.794 24.1847 133.654 24.9414C134.518 25.7019 135.489 26.3 136.534 26.7171C137.578 27.1343 138.649 27.3484 139.719 27.3484C140.79 27.3484 141.813 27.1675 142.832 26.8168C143.854 26.4624 144.699 26.0637 145.338 25.6318C145.98 25.1999 146.608 24.6978 147.202 24.1441C147.793 23.594 148.177 23.2027 148.347 22.9812C148.483 22.804 148.598 22.6563 148.694 22.5345L148.642 22.4681L148.45 22.6822C148.203 22.9553 147.841 23.2839 147.369 23.6605C146.903 24.0333 146.372 24.4135 145.796 24.7901C145.213 25.1703 144.504 25.4915 143.692 25.7499C142.88 26.0083 142.042 26.1375 141.2 26.1375C140.063 26.1375 139.014 25.9529 138.077 25.5838C137.135 25.2146 136.356 24.7089 135.755 24.085C135.16 23.4648 134.632 22.7523 134.189 21.9697C133.743 21.1834 133.433 20.3601 133.27 19.5184C133.108 18.6804 132.993 17.8572 132.927 17.0783C132.857 16.2735 132.92 15.5352 133.111 14.8781L133.145 14.7636H146.597C146.501 13.1947 145.774 11.7439 144.43 10.4481C143.038 9.10806 141.329 8.4288 139.354 8.4288M139.716 27.6622C138.605 27.6622 137.493 27.4407 136.412 27.0087C135.334 26.5768 134.333 25.9603 133.44 25.1777C132.543 24.3914 131.808 23.3688 131.255 22.1395C130.701 20.9102 130.42 19.548 130.42 18.0861C130.42 15.0959 131.207 12.6631 132.761 10.8505C134.322 9.03054 136.537 8.11133 139.354 8.11133C141.418 8.11133 143.201 8.82012 144.651 10.2192C146.106 11.6184 146.87 13.1984 146.926 14.915V15.0811H133.385C133.23 15.6718 133.182 16.3326 133.241 17.0524C133.303 17.824 133.418 18.6325 133.58 19.4594C133.735 20.2642 134.034 21.0579 134.463 21.8146C134.895 22.5751 135.408 23.2654 135.984 23.8672C136.552 24.4615 137.294 24.9414 138.191 25.2921C139.088 25.6428 140.1 25.8237 141.196 25.8237C142.005 25.8237 142.809 25.6982 143.592 25.4509C144.375 25.2035 145.058 24.8934 145.619 24.528C146.187 24.1551 146.708 23.7823 147.169 23.4131C147.627 23.0476 147.978 22.7302 148.214 22.4681L148.664 21.9623L149.096 22.5382L149.019 22.6342C148.912 22.7671 148.771 22.948 148.602 23.1732C148.421 23.4094 148.033 23.8044 147.424 24.3729C146.818 24.9378 146.18 25.4472 145.523 25.8902C144.858 26.3369 143.991 26.7466 142.942 27.1121C141.89 27.4776 140.805 27.6622 139.723 27.6622"
		fill="#54204E"
	/>
<path
		d="M160.669 8.27344C162.512 8.27344 163.914 8.80873 164.878 9.87561C165.838 10.9425 166.321 12.4782 166.321 14.4828V27.5031H163.678V15.2026C163.678 13.2793 163.265 11.8174 162.438 10.817C161.611 9.81654 160.396 9.31448 158.79 9.31448C157.454 9.31448 155.907 9.93099 154.143 11.1566V27.5031H151.418V8.79396H149.897V8.27344H154.146V10.6767C156.605 9.07452 158.779 8.27344 160.677 8.27344"
		fill="#54204E"
	/>
<path
		d="M163.833 27.3471H166.159V14.4855C166.159 12.5326 165.687 11.019 164.756 9.98536C163.83 8.9554 162.453 8.43488 160.666 8.43488C158.879 8.43488 156.642 9.23597 154.224 10.8123L153.977 10.971V8.43119H150.049V8.63422H151.57V27.3434H153.977V11.0744L154.047 11.0264C155.83 9.78602 157.425 9.15474 158.783 9.15474C160.426 9.15474 161.696 9.67896 162.552 10.7163C163.401 11.7426 163.83 13.2525 163.83 15.2053V27.3471H163.833ZM166.48 27.6646H163.516V15.2053C163.516 13.33 163.11 11.8865 162.309 10.9193C161.515 9.95952 160.33 9.47591 158.787 9.47591C157.51 9.47591 156 10.0703 154.298 11.2442V27.6682H151.256V8.95909H149.735V8.12109H154.302V10.3914C156.675 8.88526 158.816 8.12109 160.673 8.12109C162.53 8.12109 164.01 8.67853 165 9.77495C165.986 10.8677 166.484 12.4551 166.484 14.4891V27.6682L166.48 27.6646Z"
		fill="#54204E"
	/>
<path
		d="M176.695 16.4063C177.415 16.6463 177.961 16.8345 178.337 16.9674C178.71 17.1003 179.198 17.3292 179.799 17.6467C180.401 17.9679 180.855 18.289 181.162 18.6065C181.468 18.9277 181.741 19.3559 181.985 19.8875C182.225 20.4228 182.347 21.0245 182.347 21.689C182.347 23.2653 181.737 24.6276 180.523 25.7756C179.308 26.9237 177.603 27.4996 175.414 27.4996C174.266 27.4996 173.162 27.3409 172.11 27.0197C171.054 26.6985 170.271 26.3774 169.765 26.0599L169.042 25.58L169.843 24.1772C170.005 24.3654 170.216 24.5796 170.485 24.8195C170.751 25.0595 171.146 25.3659 171.667 25.7424C172.187 26.1153 172.815 26.4291 173.549 26.6838C174.284 26.9385 175.037 27.064 175.812 27.064C177.068 27.064 178.168 26.7244 179.116 26.0414C180.065 25.3622 180.538 24.4983 180.538 23.4573C180.538 22.922 180.423 22.4347 180.198 21.9954C179.973 21.5524 179.718 21.2017 179.438 20.9322C179.157 20.6664 178.729 20.3859 178.157 20.0905C177.581 19.7989 177.108 19.5848 176.735 19.4482C176.362 19.3153 175.801 19.127 175.052 18.8871C173.022 18.2447 171.512 17.4732 170.526 16.565C169.537 15.6569 169.042 14.4276 169.042 12.8808C169.042 12.4526 169.149 11.9948 169.363 11.5001C169.577 11.0055 169.884 10.5071 170.286 9.99764C170.688 9.49189 171.261 9.07843 172.006 8.75726C172.756 8.43609 173.594 8.27734 174.531 8.27734C175.307 8.27734 176.074 8.37702 176.835 8.57636C177.595 8.77571 178.253 9.02305 178.799 9.31838C179.345 9.61371 179.833 9.90535 180.261 10.2007C180.689 10.496 181.01 10.736 181.221 10.9205L181.542 11.2417L180.582 12.7627C180.527 12.6556 180.449 12.5079 180.342 12.3234C180.235 12.1351 179.995 11.8102 179.622 11.3414C179.249 10.8726 178.854 10.4665 178.441 10.1195C178.027 9.77245 177.474 9.45129 176.78 9.15965C176.086 8.86801 175.362 8.72034 174.616 8.72034C173.575 8.72034 172.678 9.00091 171.932 9.56203C171.183 10.1232 170.81 10.8836 170.81 11.8472C170.81 12.4083 170.943 12.9177 171.213 13.3681C171.478 13.8222 171.888 14.2282 172.435 14.59C172.981 14.9518 173.531 15.2434 174.077 15.4723C174.624 15.7012 175.325 15.9596 176.182 16.255L176.702 16.4137L176.695 16.4063Z"
		fill="#54204E"
	/>
<path
		d="M169.256 25.5343L169.854 25.933C170.345 26.2431 171.121 26.5605 172.158 26.8743C173.192 27.1881 174.288 27.3469 175.418 27.3469C177.555 27.3469 179.238 26.782 180.416 25.6672C181.594 24.556 182.188 23.2196 182.188 21.695C182.188 21.0526 182.07 20.4694 181.841 19.9562C181.608 19.4394 181.343 19.0222 181.051 18.7195C180.756 18.4131 180.309 18.0993 179.729 17.7893C179.139 17.4755 178.655 17.2503 178.29 17.1174C177.913 16.9845 177.363 16.7962 176.651 16.5599L176.13 16.4012C175.251 16.0985 174.557 15.8401 174.011 15.6149C173.461 15.3897 172.9 15.087 172.342 14.7215C171.774 14.3487 171.346 13.9204 171.069 13.4479C170.788 12.9717 170.648 12.4327 170.648 11.8457C170.648 10.8342 171.047 10.0258 171.833 9.4351C172.605 8.85552 173.539 8.56019 174.613 8.56019C175.377 8.56019 176.126 8.71154 176.839 9.01425C177.54 9.31327 178.116 9.64552 178.541 9.99992C178.962 10.3543 179.368 10.7715 179.744 11.244C180.128 11.7239 180.368 12.0525 180.479 12.2444C180.519 12.3146 180.556 12.3847 180.593 12.4475L181.343 11.2625L181.11 11.0299C180.907 10.8527 180.59 10.6164 180.172 10.3285C179.752 10.0405 179.264 9.7452 178.725 9.45725C178.19 9.1693 177.54 8.92565 176.795 8.73C176.049 8.53434 175.288 8.43467 174.532 8.43467C173.623 8.43467 172.793 8.59341 172.069 8.90351C171.349 9.2136 170.792 9.6123 170.408 10.0959C170.017 10.5943 169.714 11.0853 169.507 11.5615C169.304 12.034 169.201 12.477 169.201 12.8794C169.201 14.3745 169.681 15.5743 170.633 16.4492C171.597 17.3352 173.103 18.1067 175.1 18.738C175.868 18.9853 176.418 19.1699 176.787 19.2991C177.164 19.4357 177.647 19.6535 178.227 19.9489C178.814 20.2479 179.257 20.5395 179.545 20.8164C179.836 21.0969 180.102 21.4661 180.339 21.9202C180.575 22.3816 180.697 22.8985 180.697 23.4559C180.697 24.5449 180.195 25.4604 179.209 26.1692C178.238 26.867 177.094 27.2213 175.809 27.2213C175.019 27.2213 174.24 27.0921 173.494 26.8337C172.749 26.5753 172.102 26.2541 171.571 25.8702C171.047 25.4937 170.644 25.1799 170.375 24.9362C170.175 24.759 170.009 24.5966 169.869 24.4452L169.249 25.5269L169.256 25.5343ZM175.414 27.6643C174.255 27.6643 173.125 27.4982 172.062 27.1771C170.999 26.8559 170.198 26.5236 169.681 26.1988L168.832 25.634L169.817 23.9063L169.965 24.0761C170.12 24.257 170.331 24.4674 170.593 24.7037C170.851 24.9399 171.246 25.2463 171.759 25.6155C172.265 25.9773 172.885 26.2874 173.601 26.5347C174.314 26.7821 175.06 26.9076 175.813 26.9076C177.027 26.9076 178.109 26.5753 179.024 25.9145C179.936 25.2574 180.379 24.4563 180.379 23.4596C180.379 22.9538 180.272 22.485 180.058 22.0715C179.84 21.6507 179.597 21.3074 179.331 21.0526C179.061 20.7979 178.644 20.5247 178.087 20.2368C177.518 19.9489 177.046 19.7347 176.684 19.6055C176.318 19.4763 175.768 19.2917 175.008 19.0481C172.966 18.4021 171.42 17.6084 170.423 16.6891C169.404 15.7552 168.887 14.4742 168.887 12.8868C168.887 12.4401 168.998 11.9528 169.219 11.4397C169.437 10.9376 169.755 10.4208 170.161 9.90025C170.578 9.37235 171.176 8.94042 171.944 8.61186C172.708 8.28331 173.579 8.11719 174.532 8.11719C175.318 8.11719 176.104 8.22056 176.876 8.4236C177.644 8.62664 178.319 8.88135 178.873 9.17668C179.423 9.47201 179.918 9.77104 180.35 10.0664C180.778 10.3617 181.106 10.609 181.324 10.7973L181.741 11.2145L180.564 13.0787L180.438 12.8314C180.379 12.717 180.298 12.5693 180.202 12.3958C180.099 12.2186 179.862 11.8937 179.493 11.436C179.128 10.9782 178.736 10.5758 178.334 10.2362C177.932 9.90025 177.385 9.58646 176.713 9.29851C176.041 9.01426 175.333 8.87028 174.613 8.87028C173.609 8.87028 172.737 9.14346 172.025 9.67875C171.313 10.214 170.965 10.9191 170.965 11.8347C170.965 12.3663 171.091 12.8499 171.346 13.2781C171.597 13.7063 171.992 14.1013 172.52 14.4483C173.059 14.8027 173.605 15.0944 174.137 15.3159C174.676 15.541 175.362 15.7958 176.23 16.0948L176.75 16.2535C177.463 16.4898 178.017 16.6818 178.397 16.8147C178.777 16.9512 179.279 17.1838 179.881 17.505C180.494 17.8299 180.962 18.1658 181.284 18.498C181.601 18.8303 181.889 19.277 182.136 19.827C182.384 20.3808 182.513 21.0083 182.513 21.695C182.513 23.3082 181.882 24.7221 180.641 25.8961C179.401 27.0663 177.644 27.6607 175.425 27.6607"
		fill="#54204E"
	/>
<path
		d="M193.041 8.67235C191.546 8.67235 190.258 9.20026 189.176 10.2561C188.094 11.3119 187.378 12.7221 187.031 14.483H197.766C197.766 12.9066 197.364 11.5444 196.563 10.3963C195.762 9.24824 194.584 8.67235 193.037 8.67235M202.418 22.2169L202.658 22.5381C202.551 22.671 202.41 22.8519 202.237 23.0808C202.063 23.306 201.676 23.701 201.074 24.2621C200.472 24.8232 199.845 25.3253 199.191 25.7646C198.538 26.2076 197.689 26.6063 196.648 26.968C195.607 27.3298 194.551 27.5107 193.484 27.5107C192.417 27.5107 191.306 27.2966 190.239 26.8684C189.169 26.4401 188.198 25.8421 187.315 25.0669C186.433 24.2916 185.717 23.2986 185.171 22.0803C184.624 20.8658 184.351 19.5368 184.351 18.0934C184.351 15.129 185.119 12.7516 186.655 10.9612C188.19 9.17071 190.346 8.27734 193.126 8.27734C195.156 8.27734 196.884 8.96398 198.313 10.341C199.741 11.7179 200.483 13.2463 200.535 14.9296H187.035C186.847 15.572 186.787 16.2845 186.854 17.0745C186.92 17.8645 187.035 18.6693 187.194 19.4999C187.352 20.3268 187.655 21.1279 188.094 21.9031C188.534 22.6784 189.047 23.3724 189.637 23.9852C190.224 24.598 190.977 25.0853 191.9 25.4471C192.823 25.8089 193.842 25.9898 194.964 25.9898C195.791 25.9898 196.607 25.8643 197.408 25.6095C198.209 25.3548 198.896 25.041 199.472 24.6682C200.044 24.2953 200.568 23.9188 201.033 23.5459C201.502 23.1731 201.857 22.8519 202.097 22.5861L202.418 22.2243V22.2169Z"
		fill="#54204E"
	/>
<path
		d="M187.227 14.3243H197.608C197.582 12.8551 197.187 11.5667 196.434 10.4887C195.666 9.39231 194.526 8.83488 193.038 8.83488C191.55 8.83488 190.328 9.35171 189.283 10.3706C188.268 11.36 187.574 12.6889 187.223 14.3243M197.929 14.6418H186.84L186.876 14.4535C187.227 12.6668 187.962 11.2197 189.066 10.1417C190.173 9.06008 191.509 8.51371 193.041 8.51371C194.573 8.51371 195.869 9.11544 196.696 10.3041C197.512 11.4744 197.925 12.8809 197.925 14.4831V14.6418H197.929ZM193.123 8.4325C190.406 8.4325 188.268 9.31849 186.773 11.0609C185.271 12.8108 184.506 15.1771 184.506 18.0898C184.506 19.5037 184.78 20.8216 185.315 22.0103C185.85 23.199 186.559 24.1847 187.419 24.9414C188.283 25.7019 189.254 26.3 190.299 26.7171C191.343 27.1343 192.414 27.3484 193.484 27.3484C194.555 27.3484 195.578 27.1675 196.597 26.8168C197.619 26.4624 198.464 26.0637 199.103 25.6318C199.745 25.1999 200.373 24.6978 200.967 24.1441C201.558 23.594 201.942 23.2027 202.112 22.9812C202.248 22.804 202.363 22.6563 202.459 22.5345L202.407 22.4681L202.215 22.6822C201.968 22.9553 201.606 23.2839 201.134 23.6605C200.668 24.0333 200.137 24.4135 199.561 24.7901C198.978 25.1703 198.269 25.4915 197.457 25.7499C196.644 26.0083 195.806 26.1375 194.965 26.1375C193.828 26.1375 192.779 25.9529 191.842 25.5838C190.9 25.2146 190.121 24.7089 189.52 24.085C188.925 23.4648 188.397 22.7523 187.954 21.9697C187.508 21.1834 187.198 20.3601 187.035 19.5184C186.873 18.6804 186.758 17.8572 186.692 17.0783C186.622 16.2735 186.684 15.5352 186.876 14.8781L186.91 14.7636H200.362C200.266 13.1947 199.539 11.7439 198.195 10.4481C196.803 9.10806 195.094 8.4288 193.119 8.4288M193.484 27.6622C192.373 27.6622 191.262 27.4407 190.18 27.0087C189.103 26.5768 188.102 25.9603 187.209 25.1777C186.312 24.3914 185.577 23.3688 185.023 22.1395C184.47 20.9102 184.189 19.548 184.189 18.0861C184.189 15.0959 184.975 12.6631 186.529 10.8505C188.091 9.03054 190.306 8.11133 193.123 8.11133C195.186 8.11133 196.969 8.82012 198.42 10.2192C199.875 11.6184 200.639 13.1984 200.694 14.915V15.0811H187.153C186.998 15.6718 186.95 16.3326 187.009 17.0524C187.076 17.824 187.187 18.6325 187.349 19.4594C187.504 20.2642 187.803 21.0579 188.231 21.8146C188.663 22.5751 189.176 23.2654 189.752 23.8672C190.321 24.4615 191.063 24.9414 191.96 25.2921C192.857 25.6428 193.868 25.8237 194.965 25.8237C195.773 25.8237 196.578 25.6982 197.361 25.4509C198.143 25.2035 198.826 24.8934 199.387 24.528C199.956 24.1551 200.476 23.7823 200.938 23.4131C201.396 23.0476 201.746 22.7302 201.983 22.4681L202.433 21.9623L202.865 22.5382L202.787 22.6342C202.68 22.7671 202.54 22.948 202.367 23.1732C202.186 23.4094 201.798 23.8044 201.189 24.3729C200.583 24.9378 199.945 25.4472 199.288 25.8902C198.623 26.3369 197.756 26.7466 196.707 27.1121C195.655 27.4776 194.57 27.6622 193.488 27.6622"
		fill="#54204E"
	/>
<path
		d="M207.749 4.26756C207.376 4.64411 206.926 4.82869 206.405 4.82869C205.885 4.82869 205.438 4.64411 205.065 4.26756C204.688 3.89471 204.504 3.44064 204.504 2.90535C204.504 2.37007 204.685 1.87909 205.043 1.50254C205.405 1.12969 205.866 0.941406 206.427 0.941406C206.988 0.941406 207.409 1.12969 207.767 1.50254C208.129 1.87539 208.31 2.34423 208.31 2.90535C208.31 3.46648 208.122 3.89471 207.749 4.26756ZM203.622 8.8378V8.31728H207.871V27.51H205.146V8.84148H203.625L203.622 8.8378Z"
		fill="#54204E"
	/>
<path
		d="M206.424 1.10242C205.903 1.10242 205.49 1.26855 205.157 1.61556C204.825 1.96257 204.663 2.38342 204.663 2.90763C204.663 3.40231 204.829 3.81207 205.176 4.15908C205.523 4.5061 205.925 4.67223 206.405 4.67223C206.885 4.67223 207.287 4.50241 207.634 4.15908C207.981 3.81207 208.148 3.406 208.148 2.90763C208.148 2.38342 207.985 1.96257 207.649 1.61556C207.317 1.27224 206.915 1.10242 206.424 1.10242ZM206.405 4.98602C205.84 4.98602 205.353 4.78297 204.951 4.37689C204.548 3.9745 204.345 3.47983 204.345 2.90393C204.345 2.32804 204.541 1.79275 204.928 1.39037C205.32 0.984287 205.822 0.78125 206.427 0.78125C207.033 0.78125 207.494 0.987979 207.885 1.39037C208.273 1.79275 208.472 2.3022 208.472 2.90393C208.472 3.50567 208.269 3.9745 207.863 4.37689C207.461 4.77928 206.97 4.98602 206.409 4.98602M205.301 27.3462H207.708V8.4746H203.78V8.67764H205.301V27.3462ZM208.026 27.6637H204.984V8.99512H203.463V8.15712H208.029V27.6674L208.026 27.6637Z"
		fill="#54204E"
	/>
</svg>
